<svg width="185" height="32" viewBox="0 0 185 32" fill="none" xmlns="http://www.w3.org/2000/svg">
<path d="M31 16C31 24.2843 24.2843 31 16 31C7.71573 31 1 24.2843 1 16C1 7.71573 7.71573 1 16 1C24.2843 1 31 7.71573 31 16Z" stroke="#14B8A6" stroke-width="2"/>
<rect x="21" y="7" width="4" height="18" rx="2" fill="#14B8A6"/>
<rect x="7" y="7" width="4" height="18" rx="2" fill="#14B8A6"/>
<rect x="14" y="13" width="4" height="12" rx="2" fill="#14B8A6"/>
<path d="M46 7.21533H50.0305L55.4283 20.39H55.6413L61.0391 7.21533H65.0696V25.3972H61.9091V12.906H61.7404L56.7156 25.3439H54.354L49.3292 12.8794H49.1605V25.3972H46V7.21533Z" fill="#1E293B"/>
<path d="M68.5142 25.3972V11.7608H71.728V25.3972H68.5142ZM70.13 9.82542C69.621 9.82542 69.183 9.65674 68.8161 9.31938C68.4491 8.9761 68.2656 8.56476 68.2656 8.08536C68.2656 7.60004 68.4491 7.1887 68.8161 6.85134C69.183 6.50806 69.621 6.33643 70.13 6.33643C70.6449 6.33643 71.0829 6.50806 71.4439 6.85134C71.8108 7.1887 71.9943 7.60004 71.9943 8.08536C71.9943 8.56476 71.8108 8.9761 71.4439 9.31938C71.0829 9.65674 70.6449 9.82542 70.13 9.82542Z" fill="#1E293B"/>
<path d="M77.9624 21.118L77.9536 17.2384H78.4685L83.3691 11.7608H87.1244L81.0963 18.4724H80.4305L77.9624 21.118ZM75.0328 25.3972V7.21533H78.2465V25.3972H75.0328ZM83.591 25.3972L79.1521 19.1915L81.3183 16.9277L87.4351 25.3972H83.591Z" fill="#1E293B"/>
<path d="M94.7416 25.6635C93.3744 25.6635 92.1936 25.3794 91.1993 24.8112C90.2109 24.2371 89.4504 23.4263 88.9177 22.3787C88.385 21.3252 88.1187 20.0852 88.1187 18.6589C88.1187 17.2562 88.385 16.0251 88.9177 14.9657C89.4563 13.9003 90.208 13.0717 91.1727 12.4799C92.1374 11.8821 93.2708 11.5832 94.5729 11.5832C95.4133 11.5832 96.2064 11.7194 96.9521 11.9916C97.7038 12.2579 98.3667 12.6722 98.9408 13.2345C99.5208 13.7968 99.9765 14.5129 100.308 15.3829C100.639 16.2471 100.805 17.2769 100.805 18.4724V19.4579H89.6279V17.2917H97.7245C97.7186 16.6762 97.5854 16.1287 97.325 15.6493C97.0646 15.164 96.7006 14.7822 96.233 14.504C95.7714 14.2259 95.2328 14.0868 94.6173 14.0868C93.9603 14.0868 93.3833 14.2466 92.8861 14.5662C92.3889 14.8799 92.0013 15.2942 91.7231 15.8091C91.4508 16.3181 91.3118 16.8774 91.3058 17.487V19.378C91.3058 20.1711 91.4508 20.8517 91.7409 21.4199C92.0309 21.9821 92.4363 22.4142 92.9571 22.716C93.478 23.012 94.0876 23.1599 94.786 23.1599C95.2535 23.1599 95.6767 23.0948 96.0555 22.9646C96.4343 22.8285 96.7628 22.6302 97.0409 22.3698C97.3191 22.1094 97.5292 21.7868 97.6713 21.4021L100.672 21.7395C100.483 22.5326 100.122 23.225 99.5889 23.8169C99.0621 24.4028 98.3874 24.8586 97.5647 25.1841C96.742 25.5037 95.801 25.6635 94.7416 25.6635Z" fill="#1E293B"/>
<path d="M115.846 13.0214C115.698 12.542 115.494 12.1129 115.234 11.7342C114.979 11.3494 114.672 11.021 114.311 10.7487C113.955 10.4765 113.547 10.2723 113.085 10.1361C112.624 9.9941 112.121 9.92307 111.576 9.92307C110.6 9.92307 109.73 10.1687 108.966 10.6599C108.203 11.1512 107.602 11.8732 107.164 12.8261C106.732 13.7731 106.516 14.9272 106.516 16.2885C106.516 17.6616 106.732 18.8246 107.164 19.7775C107.596 20.7304 108.197 21.4554 108.966 21.9525C109.736 22.4438 110.629 22.6894 111.647 22.6894C112.57 22.6894 113.369 22.5119 114.044 22.1567C114.725 21.8016 115.249 21.2985 115.616 20.6475C115.983 19.9905 116.166 19.2211 116.166 18.3393L116.912 18.4547H111.976V15.8801H119.353V18.0641C119.353 19.6206 119.022 20.9671 118.359 22.1035C117.696 23.2398 116.785 24.1158 115.624 24.7313C114.464 25.3409 113.133 25.6457 111.629 25.6457C109.954 25.6457 108.484 25.2699 107.217 24.5182C105.956 23.7607 104.971 22.6865 104.261 21.2956C103.557 19.8988 103.204 18.2416 103.204 16.324C103.204 14.8562 103.412 13.5452 103.826 12.3911C104.246 11.237 104.832 10.2575 105.584 9.45255C106.335 8.6417 107.217 8.02617 108.229 7.60596C109.241 7.17982 110.342 6.96675 111.532 6.96675C112.538 6.96675 113.476 7.11472 114.346 7.41064C115.216 7.70065 115.988 8.11495 116.663 8.65354C117.344 9.19213 117.903 9.83134 118.341 10.5712C118.779 11.311 119.066 12.1277 119.202 13.0214H115.846Z" fill="#1E293B"/>
<path d="M131.087 19.6621V11.7608H134.301V25.3972H131.185V22.9735H131.043C130.735 23.737 130.229 24.3614 129.525 24.8467C128.827 25.332 127.965 25.5747 126.941 25.5747C126.048 25.5747 125.258 25.3764 124.571 24.9799C123.89 24.5774 123.358 23.9945 122.973 23.231C122.588 22.4615 122.396 21.5323 122.396 20.4433V11.7608H125.61V19.9462C125.61 20.8103 125.847 21.4968 126.32 22.0058C126.794 22.5148 127.415 22.7693 128.184 22.7693C128.658 22.7693 129.117 22.6539 129.56 22.4231C130.004 22.1923 130.368 21.849 130.652 21.3932C130.942 20.9316 131.087 20.3545 131.087 19.6621Z" fill="#1E293B"/>
<path d="M140.82 7.21533V25.3972H137.606V7.21533H140.82Z" fill="#1E293B"/>
<path d="M147.338 7.21533V25.3972H144.125V7.21533H147.338Z" fill="#1E293B"/>
<path d="M150.643 25.3972V11.7608H153.857V25.3972H150.643ZM152.259 9.82542C151.75 9.82542 151.312 9.65674 150.945 9.31938C150.578 8.9761 150.395 8.56476 150.395 8.08536C150.395 7.60004 150.578 7.1887 150.945 6.85134C151.312 6.50806 151.75 6.33643 152.259 6.33643C152.774 6.33643 153.212 6.50806 153.573 6.85134C153.94 7.1887 154.123 7.60004 154.123 8.08536C154.123 8.56476 153.94 8.9761 153.573 9.31938C153.212 9.65674 152.774 9.82542 152.259 9.82542Z" fill="#1E293B"/>
<path d="M160.375 17.4071V25.3972H157.162V11.7608H160.233V14.0779H160.393C160.707 13.3144 161.207 12.7078 161.894 12.2579C162.586 11.8081 163.441 11.5832 164.459 11.5832C165.4 11.5832 166.22 11.7845 166.918 12.1869C167.623 12.5894 168.167 13.1724 168.552 13.9359C168.943 14.6994 169.135 15.6256 169.129 16.7146V25.3972H165.915V17.2118C165.915 16.3003 165.678 15.5871 165.205 15.0722C164.737 14.5573 164.089 14.2998 163.261 14.2998C162.698 14.2998 162.198 14.4241 161.76 14.6727C161.328 14.9154 160.988 15.2675 160.739 15.7292C160.497 16.1908 160.375 16.7501 160.375 17.4071Z" fill="#1E293B"/>
<path d="M178.433 25.6635C177.066 25.6635 175.885 25.3794 174.891 24.8112C173.902 24.2371 173.142 23.4263 172.609 22.3787C172.076 21.3252 171.81 20.0852 171.81 18.6589C171.81 17.2562 172.076 16.0251 172.609 14.9657C173.148 13.9003 173.899 13.0717 174.864 12.4799C175.829 11.8821 176.962 11.5832 178.264 11.5832C179.105 11.5832 179.898 11.7194 180.644 11.9916C181.395 12.2579 182.058 12.6722 182.632 13.2345C183.212 13.7968 183.668 14.5129 183.999 15.3829C184.331 16.2471 184.497 17.2769 184.497 18.4724V19.4579H173.319V17.2917H181.416C181.41 16.6762 181.277 16.1287 181.016 15.6493C180.756 15.164 180.392 14.7822 179.924 14.504C179.463 14.2259 178.924 14.0868 178.309 14.0868C177.652 14.0868 177.075 14.2466 176.577 14.5662C176.08 14.8799 175.693 15.2942 175.415 15.8091C175.142 16.3181 175.003 16.8774 174.997 17.487V19.378C174.997 20.1711 175.142 20.8517 175.432 21.4199C175.722 21.9821 176.128 22.4142 176.649 22.716C177.169 23.012 177.779 23.1599 178.477 23.1599C178.945 23.1599 179.368 23.0948 179.747 22.9646C180.126 22.8285 180.454 22.6302 180.732 22.3698C181.011 22.1094 181.221 21.7868 181.363 21.4021L184.363 21.7395C184.174 22.5326 183.813 23.225 183.28 23.8169C182.754 24.4028 182.079 24.8586 181.256 25.1841C180.433 25.5037 179.492 25.6635 178.433 25.6635Z" fill="#1E293B"/>
</svg>
