<?xml version="1.0" encoding="UTF-8"?>
<svg id="Layer_1" data-name="Layer 1" xmlns="http://www.w3.org/2000/svg" version="1.1" viewBox="0 0 200 200">
  <defs>
    <style>
      .cls-1 {
        fill: none;
      }

      .cls-1, .cls-2 {
        stroke-width: 0px;
      }

      .cls-2 {
        fill: #002e54;
      }
    </style>
  </defs>
  <path class="cls-1" d="M0,0h200v200H0V0Z"/>
  <path class="cls-2" d="M100,16.67c-46,0-83.33,37.33-83.33,83.33s37.33,83.33,83.33,83.33h41.67v-16.67h-41.67c-36.17,0-66.67-30.5-66.67-66.67S63.83,33.33,100,33.33s66.67,30.5,66.67,66.67v11.92c0,6.58-5.92,13.08-12.5,13.08s-12.5-6.5-12.5-13.08v-11.92c0-23-18.67-41.67-41.67-41.67s-41.67,18.67-41.67,41.67,18.67,41.67,41.67,41.67c11.5,0,22-4.67,29.5-12.25,5.42,7.42,14.75,12.25,24.67,12.25,16.42,0,29.17-13.33,29.17-29.75v-11.92c0-46-37.33-83.33-83.33-83.33ZM100,125c-13.83,0-25-11.17-25-25s11.17-25,25-25,25,11.17,25,25-11.17,25-25,25Z"/>
</svg>