<?xml version="1.0" encoding="UTF-8"?>
<svg id="Layer_1" data-name="Layer 1" xmlns="http://www.w3.org/2000/svg" version="1.1" viewBox="0 0 200 200">
  <defs>
    <style>
      .cls-1 {
        fill: #002e54;
        stroke-width: 0px;
      }
    </style>
  </defs>
  <path class="cls-1" d="M78.95,128.4c0,8.16-4.26,21.52-14.34,21.52s-14.34-13.36-14.34-21.52,4.26-21.52,14.34-21.52,14.34,13.36,14.34,21.52ZM193.75,108.67c0,12.46-1.25,25.66-6.84,37.11-14.8,29.92-55.51,29.22-84.65,29.22s-72.73,1.05-88.13-29.22c-5.7-11.33-7.89-24.65-7.89-37.11,0-16.37,5.43-31.84,16.21-44.38-2.03-6.17-3.01-12.66-3.01-19.06,0-8.4,1.91-12.62,5.7-20.23,17.7,0,29.02,3.52,42.5,14.06,11.33-2.7,22.97-3.91,34.65-3.91,10.55,0,21.17,1.13,31.41,3.59,13.28-10.43,24.61-13.75,42.11-13.75,3.83,7.62,5.7,11.84,5.7,20.23,0,6.41-1.02,12.77-3.01,18.83,10.74,12.66,15.23,28.24,15.23,44.61h0ZM168.63,128.4c0-17.15-10.43-32.27-28.71-32.27-7.38,0-14.45,1.33-21.88,2.34-5.82.9-11.64,1.25-17.62,1.25s-11.76-.35-17.62-1.25c-7.3-1.02-14.45-2.34-21.88-2.34-18.28,0-28.71,15.12-28.71,32.27,0,34.3,31.41,39.57,58.75,39.57h18.83c27.46,0,58.83-5.23,58.83-39.57ZM136.37,106.88c-10.08,0-14.34,13.36-14.34,21.52s4.26,21.52,14.34,21.52,14.34-13.36,14.34-21.52-4.26-21.52-14.34-21.52Z"/>
</svg>