<?xml version="1.0" encoding="UTF-8"?>
<svg id="Layer_1" data-name="Layer 1" xmlns="http://www.w3.org/2000/svg" version="1.1" viewBox="0 0 200 200">
  <defs>
    <style>
      .cls-1 {
        fill: #002e54;
        stroke-width: 0px;
      }
    </style>
  </defs>
  <path class="cls-1" d="M51.67,187H15.39v-116.84h36.28v116.84ZM33.51,54.23c-11.6,0-21.01-9.61-21.01-21.21,0-11.6,9.41-21.01,21.01-21.01,11.6,0,21.01,9.41,21.01,21.01,0,11.6-9.41,21.21-21.01,21.21ZM187.46,187h-36.2v-56.88c0-13.55-.27-30.94-18.86-30.94s-21.75,14.73-21.75,29.96v57.85h-36.24v-116.84h34.8v15.94h.51c4.84-9.18,16.68-18.87,34.33-18.87,36.72,0,43.47,24.18,43.47,55.59v64.18h-.04Z"/>
</svg>