<?xml version="1.0" encoding="UTF-8"?>
<svg id="Layer_1" data-name="Layer 1" xmlns="http://www.w3.org/2000/svg" version="1.1" viewBox="0 0 200 200">
  <defs>
    <style>
      .cls-1 {
        fill: #002e54;
        stroke-width: 0px;
      }
    </style>
  </defs>
  <path class="cls-1" d="M166.67,150H33.33c-13.79,0-25-11.21-25-25V41.67c0-13.79,11.22-25,25-25h133.33c13.78,0,25,11.21,25,25v83.33c0,13.79-11.21,25-25,25ZM33.33,33.33c-4.6,0-8.33,3.74-8.33,8.33v83.33c0,4.6,3.74,8.33,8.33,8.33h133.33c4.59,0,8.33-3.74,8.33-8.33V41.67c0-4.59-3.74-8.33-8.33-8.33H33.33Z"/>
  <path class="cls-1" d="M133.33,183.33h-66.67c-4.6,0-8.33-3.73-8.33-8.33s3.73-8.33,8.33-8.33h66.67c4.6,0,8.33,3.73,8.33,8.33s-3.73,8.33-8.33,8.33Z"/>
  <path class="cls-1" d="M100,183.33c-4.6,0-8.33-3.73-8.33-8.33v-33.33c0-4.6,3.73-8.33,8.33-8.33s8.33,3.73,8.33,8.33v33.33c0,4.6-3.73,8.33-8.33,8.33Z"/>
</svg>